<svg t="1708282513139" class="icon" viewBox="0 0 1024 1024" version="1.1" xmlns="http://www.w3.org/2000/svg" p-id="7768" width="200" height="200"><path d="M910.628571 0H113.371429C51.2 0 0 51.2 0 113.371429v796.038095C0 972.8 51.2 1024 113.371429 1024h796.038095c62.171429 0 113.371429-51.2 113.371428-113.371429V113.371429C1024 51.2 972.8 0 910.628571 0z" fill="#4CD964" p-id="7769"></path><path d="M315.733333 385.219048c21.942857 17.066667 34.133333 41.447619 39.009524 70.704762h-43.885714c-4.87619-20.72381-14.628571-35.352381-28.038095-43.885715-13.409524-9.752381-31.695238-14.628571-53.638096-14.628571-31.695238 0-56.07619 10.971429-71.923809 32.914286-15.847619 19.504762-23.161905 47.542857-23.161905 81.67619 0 35.352381 7.314286 63.390476 21.942857 82.895238 15.847619 20.72381 40.228571 30.47619 73.142857 30.476191 21.942857 0 40.228571-4.87619 53.638096-15.847619 14.628571-12.190476 25.6-29.257143 30.47619-52.419048h43.885714c-6.095238 34.133333-21.942857 60.952381-46.323809 80.457143-23.161905 18.285714-49.980952 26.819048-81.676191 26.819047-48.761905 0-85.333333-15.847619-109.714285-46.323809-20.72381-26.819048-31.695238-62.171429-31.695238-107.276191 0-43.885714 10.971429-80.457143 32.914285-107.27619 24.380952-31.695238 60.952381-46.32381 107.276191-46.32381 36.571429 1.219048 65.828571 9.752381 87.771428 28.038096zM488.838095 364.495238h51.2l113.371429 296.228572h-48.761905l-28.038095-76.8H451.047619l-28.038095 76.8h-47.542857l113.371428-296.228572z m-24.380952 181.638095h99.961905l-48.761905-134.095238h-1.219048l-49.980952 134.095238zM683.885714 364.495238h107.276191c47.542857 0 84.114286 13.409524 108.495238 40.228572 23.161905 24.380952 35.352381 60.952381 35.352381 107.27619 0 46.32381-12.190476 81.67619-35.352381 108.495238-24.380952 26.819048-60.952381 40.228571-108.495238 40.228572h-107.276191V364.495238z m45.104762 37.790476v219.428572h53.638095c37.790476 0 64.609524-8.533333 82.895239-26.819048 17.066667-18.285714 25.6-45.104762 25.6-82.895238 0-37.790476-8.533333-64.609524-25.6-82.895238-17.066667-18.285714-45.104762-26.819048-81.676191-26.819048h-54.857143z" fill="#FFFFFF" p-id="7770"></path></svg>